# xmcd
#
# Track frame offsets: 
#        150
#        29110
#        56562
#        75340
#        98338
#        119410
#        137024
#        159208
#        184891
#        201056
#        216299
#        235433
#        258193
#        280660
#        300224
#        325146
#        338648
#
# Disc length: 4792 seconds
#
# Revision: 0
# Processed by: cddbd v1.5.2PL0 Copyright (c) Steve Scherf et al.
# Submitted via: ExactAudioCopy v0.95b4
#
DISCID=e012b611
DTITLE=Chris Rea - The History of the last romantic-CD 2
DYEAR=2006
DGENRE=Ballad
TTITLE0=Curse of the traveller
TTITLE1=E.
TTITLE2=Auf Immer Und Ewig
TTITLE3=Daytona
TTITLE4=Firefly
TTITLE5=Give that girl a diamond
TTITLE6=I'm still holding on
TTITLE7=Coming off the ropes
TTITLE8=Josephine
TTITLE9=I can hear your heartbeat
TTITLE10=Let's dance
TTITLE11=Marvin
TTITLE12=Burning feet
TTITLE13=Keep on dancing
TTITLE14=Evil
TTITLE15=God gave me an Angel
TTITLE16=I'm in my car
EXTD=
EXTT0=
EXTT1=
EXTT2=
EXTT3=
EXTT4=
EXTT5=
EXTT6=
EXTT7=
EXTT8=
EXTT9=
EXTT10=
EXTT11=
EXTT12=
EXTT13=
EXTT14=
EXTT15=
EXTT16=
PLAYORDER=
